<?xml version="1.0" encoding="UTF-8"?>
<!-- Generator: Adobe Illustrator 27.7.0, SVG Export Plug-In . SVG Version: 6.00 Build 0)  -->
<svg xmlns="http://www.w3.org/2000/svg" xmlns:xlink="http://www.w3.org/1999/xlink" version="1.1" id="Layer_1" x="0px" y="0px" viewBox="0 0 1181 193" style="enable-background:new 0 0 1181 193;" xml:space="preserve">
<style type="text/css">
	.st0{fill:#FEFEFE;}
	.st1{fill:#FDFDFE;}
	.st2{fill:#FCFCFC;}
	.st3{fill:#FDFDFD;}
	.st4{fill:#F8F8F8;}
	.st5{fill:#171717;}
	.st6{fill:#FBFBFB;}
</style>
<g>
	<path class="st0" d="M472,189.3c0-55.9,0-111.7,0-167.7c0.8,0,1.6-0.1,2.3-0.1c25.9,0,51.8-0.1,77.7,0c3.9,0,7.7,0.6,11.6,0.9   c3.3,0.3,6.7,0.4,10,1.1c3.7,0.7,7.3,1.8,10.8,3c8.2,2.7,15.7,6.8,21.8,13c4.6,4.6,8.2,9.9,10.4,16.1c1.4,3.8,2.8,7.6,3.4,11.7   c0.9,6.3,1.4,12.7,0.5,19.1c-0.8,5.6-2.1,11-4.3,16.2c-4.9,11.9-13.7,20.1-24.8,26.1c-1.5,0.8-3.1,1.5-4.8,2.4   c13.2,19.4,26.4,38.6,39.8,58.2c-18.2,0-36,0-54,0c-1.7-2.5-3.5-5.2-5.3-7.9c-9.1-13.7-18.2-27.4-27.2-41.2   c-0.7-1.1-1.5-1.6-2.8-1.6c-5.7,0-11.3,0-17,0c-0.4,0-0.8,0.1-1.4,0.2c0,16.9,0,33.6,0,50.5C503,189.3,487.7,189.3,472,189.3z    M518.8,101.9c0.4,0.1,0.6,0.2,0.8,0.2c11.9-0.3,23.9,0.7,35.8-0.6c4.8-0.5,9.2-2.1,12.8-5.5c4.8-4.4,6.3-10,5.7-16.2   c-0.6-5.6-2.8-10.4-7.8-13.6c-4.5-3-9.6-4-14.7-4.1c-10.2-0.3-20.5-0.1-30.7-0.1c-0.6,0-1.3,0.1-1.8,0.2   C518.8,75.5,518.8,88.6,518.8,101.9z"></path>
	<path class="st0" d="M398.4,125.4c-6.4,0-12.5,0-18.8,0c0-11.5,0-22.7,0-34.1c20.9,0,41.8,0,63,0c0,0.9,0.1,1.9,0.1,2.8   c0,23.7,0,47.3,0.1,71c0,1.3-0.4,2.1-1.4,2.7c-4.3,3-8.4,6.2-12.9,9c-3.8,2.3-7.8,4.3-11.9,6.2c-3.2,1.5-6.6,2.7-10,3.9   c-5.8,2.1-11.8,3.5-17.9,4.5c-8.5,1.3-17,1.5-25.6,1.2c-3.6-0.1-7.2-0.4-10.8-1.1c-6.9-1.2-13.7-2.8-20.2-5.5   c-8-3.3-15.4-7.5-22.3-12.8c-8.4-6.6-15-14.7-20.3-23.9c-2.9-5-5.1-10.2-6.9-15.6c-1.2-3.6-2-7.4-2.7-11.2   c-1.2-6.9-1.4-13.8-1.2-20.8c0.1-3.5,0.3-7.1,0.7-10.6c0.4-2.7,1.4-5.4,1.9-8.1c0.9-4.8,2.6-9.4,4.7-13.8c3.3-6.8,7.2-13.3,12-19.2   c6.1-7.6,13.5-13.7,21.8-18.8c7.6-4.6,15.7-8.1,24.3-10.2c10.2-2.5,20.5-3.5,31-2.8c2.1,0.1,4.2,0.2,6.2,0.5   c4.8,0.7,9.5,1.3,14.2,2.4c3.9,0.9,7.8,2.2,11.6,3.5c9.5,3.4,18.2,8.3,26,14.7c1.3,1.1,2.6,2.3,3.9,3.4   C427.9,54,418.9,65,409.7,76.1c-2.3-1.7-4.5-3.3-6.8-4.9c-3.7-2.7-7.6-5.1-12-6.8c-2.5-1-5-2.1-7.7-2.7c-2.9-0.6-5.8-0.8-8.7-1.2   c-1.5-0.2-2.9-0.4-4.4-0.5c-4.9-0.2-9.6,0.8-14.2,2.1c-2.6,0.7-4.9,2.2-7.3,3.5c-8.5,4.9-14.4,12.1-18.5,20.9   c-1.3,2.9-2,6.1-2.7,9.3c-1,4.9-0.8,9.9-0.7,14.8c0.1,4.4,1.2,8.5,2.6,12.5c3.1,8.8,8.4,16.1,16.2,21.5c3.4,2.4,7.1,4.2,11,5.6   c3.4,1.3,7.1,2,10.8,2c3.8,0,7.7,0.1,11.5-0.2c6.4-0.5,12.5-2.3,18.1-5.6c0.8-0.5,1.4-1,1.4-2.1C398.4,138.2,398.4,132,398.4,125.4   z"></path>
	<path class="st1" d="M1123.5,37.6c-7.9,10.3-16.6,20-24.9,30.1c-1.3,1.6-1.3,1.5-3.1,0.6c-13.5-8.8-52.6-23.2-62.3-4.7   c-7.2,22.3,58.6,15.6,78.9,32.4c25.4,15,25.9,54.4,6.7,74.8c-34.9,35.1-103.7,25.3-139.4-4.3c8.8-10.9,17.7-21.9,26.6-33   c13.1,9.9,28.1,17.3,44.6,18.8c9.9,0.4,21.2,0.9,29.6-5.1c6.6-5.6,2.3-16-5.4-17.6c-17.2-5.6-35.6-5.9-52.9-11.5   c-50.5-11.4-51-77.6-3.8-94.5C1052.6,12.2,1093.4,17.1,1123.5,37.6z"></path>
	<path class="st1" d="M819.5,166.5c8.9-11,17.7-21.9,26.6-32.8c19.8,14.6,46,24.3,70.2,15.9c44.5-40.5-119-0.7-89.2-97.6   c24.1-47.3,95.4-40,134.2-16c5.9,2.6-20,26-22.6,31.4c-1.5,1.8-1.5,1.7-3.6,0.6c-16.7-9.1-47.9-23.1-62-4.4   c-3.3,22.9,51,16.7,65.9,26.1c37.4,9.9,43.8,61.4,15.9,85.1C916.5,204.9,856,195.7,819.5,166.5z"></path>
	<path class="st0" d="M745.7,21.6c23.6,55.8,47.1,111.6,70.7,167.6c-0.7,0.1-1.2,0.3-1.8,0.3c-15.5,0-31,0-46.5,0   c-1.5,0-2.3-0.4-2.8-1.8c-0.9-2.7-1.9-5.3-3-7.9c-1.5-3.7-3-7.4-4.5-11.1c-1.2-3-2.4-6-3.8-9.3c-0.8,0-1.6,0-2.5,0   c-19.7,0-39.3,0-59,0c-3,0-3.2,0.2-4.1,3c-1.1,3.1-2.3,6.2-3.5,9.3c-1.1,2.9-2.3,5.8-3.5,8.7c-1.2,3-2.4,6-3.7,8.9   c-16.3,0-32.4,0-48.8,0c0.4-1.2,0.8-2.3,1.2-3.3c1.9-4.7,3.8-9.5,5.8-14.2c2.4-5.7,5-11.3,7.4-17c2.4-5.7,4.7-11.5,7.1-17.2   c1.6-3.7,3.3-7.4,4.8-11.1c1.9-4.6,3.7-9.2,5.7-13.7c1.6-3.7,3.2-7.4,4.8-11.1c1.1-2.6,2.1-5.3,3.2-8c1.1-2.6,2.3-5.2,3.3-7.8   c1.6-3.8,3.1-7.6,4.7-11.3c2.1-5,4.4-10,6.5-15c1.9-4.5,3.6-9,5.5-13.5c1-2.5,2.2-4.9,3.3-7.4c0.9-2.2,1.8-4.4,2.7-6.6   c1.3-3.1,2.7-6.2,4-9.4c0.3-0.9,0.8-1.2,1.6-1.2c0.2,0,0.5,0,0.7,0c14.3,0,28.7,0,43,0C744.8,21.5,745.2,21.6,745.7,21.6z    M703.8,122.8c12.4,0.5,34.4,0.3,36.5-0.3c-6-15.2-12-30.4-18.2-46.1C715.9,92.1,709.9,107.3,703.8,122.8z"></path>
	<path class="st2" d="M158,42.9c-9.1,11.1-18.2,22.1-27.3,33.2c-1.7-1.2-3.3-2.3-4.8-3.4c-5.3-4.3-11.2-7.4-17.6-9.6   c-4.2-1.5-8.6-1.9-12.9-2.6c-4.2-0.7-8.3-0.5-12.4,0.2c-5.4,0.9-10.4,2.9-15,6c-7.4,5-12.9,11.5-16.6,19.7c-1.7,3.9-2.8,8-3.4,12.2   c-0.6,3.6-0.4,7.3-0.3,11c0.1,3.4,0.4,6.9,1.4,10.2c1.3,4.3,3,8.5,5.4,12.3c5.6,9.1,13.7,15,23.6,18.4c4,1.4,8.1,2,12.4,1.9   c2.9-0.1,5.8,0.1,8.7-0.2c6.4-0.5,12.5-2.1,18.2-5.3c1.4-0.8,2-1.6,2-3.3c-0.1-5.3,0-10.7,0-16c0-0.6,0-1.1,0-2   c-6.3,0-12.4,0-18.7,0c0-11.5,0-22.8,0-34.2c20.9,0,41.8,0,63,0c0,1,0,2,0,3c0,23.7,0,47.3,0.1,71c0,1.2-0.4,1.9-1.2,2.5   c-3.5,2.6-6.9,5.4-10.6,7.6c-4.6,2.8-9.5,5.3-14.4,7.7c-3.2,1.5-6.6,2.8-10,3.8c-4.7,1.4-9.5,2.8-14.3,3.8   c-3.2,0.7-6.5,0.8-9.7,1.3c-8,1.2-16.1,0.7-24.1,0.4c-4.6-0.2-9.2-1.1-13.6-2.4c-4.3-1.3-8.7-2.1-12.8-3.9   c-5.4-2.3-10.6-4.9-15.5-8.1c-5.1-3.3-9.7-7.1-14-11.4c-4.2-4.2-7.8-8.8-10.9-13.8C10,148.6,8,144.3,6,139.9   c-2.4-5.2-3.7-10.8-4.8-16.3c-1.5-7.4-1.6-15-1.3-22.6c0.1-2.1,0-4.2,0.2-6.2c0.2-2.2,0.5-4.4,1.1-6.5c1.1-4.3,1.9-8.6,3.5-12.7   C9.6,62.5,17,51,27.3,41.4c6.2-5.7,13.2-10.1,20.6-13.9c5.5-2.8,11.4-4.8,17.3-6.4c4.1-1.1,8.4-1.4,12.6-2.1   c7.3-1.2,14.6-1,21.8-0.4c5.7,0.5,11.3,1.5,16.9,2.7c6.8,1.5,13.3,3.9,19.6,6.8c7.1,3.2,13.5,7.6,19.6,12.6   c0.5,0.4,0.9,0.7,1.3,1.2C157.5,42.1,157.7,42.5,158,42.9z M143.3,44.3c-0.5-0.4-0.8-0.6-1.1-0.9c-3.9-2.5-7.8-4.8-12.1-6.7   c-4.4-2-8.8-3.6-13.4-5c-4.3-1.3-8.9-2-13.4-2.7C96.2,27.9,89,28,81.9,28.7c-3.3,0.3-6.5,0.8-9.8,1.4c-10,2-19.3,5.6-27.9,11.2   c-14.4,9.4-24.5,22.3-30.5,38.4c-2.4,6.5-4.1,13.2-4.2,20.3c-0.1,6.3-0.1,12.6,1,18.8c1.1,6.4,2.7,12.7,5.4,18.6   c2.5,5.5,5.5,10.8,9.3,15.5c5.1,6.3,11,11.9,17.9,16.3c5.7,3.6,11.7,6.9,18.1,8.9c4.5,1.4,8.9,2.8,13.6,3.5   c3.6,0.5,7.2,1.1,10.9,1.3c7.5,0.3,14.9-0.1,22.3-1.4c5.9-1.1,11.6-2.7,17.2-4.7c3.4-1.2,6.6-2.8,10-4.2c6.1-2.5,11.6-6,16.9-9.9   c1-0.7,1.3-1.5,1.3-2.7c-0.1-18.8-0.1-37.7-0.1-56.5c0-0.7-0.1-1.4-0.1-2.1c-14.6,0-28.9,0-43.3,0c0,4.9,0,9.6,0,14.6   c6.3,0,12.5,0,18.9,0c0,1.1,0,1.9,0,2.7c0,9.8-0.1,19.7,0.1,29.5c0,2.2-0.6,3.6-2.4,4.8c-3.5,2.4-7.1,4.4-11.1,5.9   c-4.4,1.7-9,2.6-13.7,3.2c-5.9,0.8-11.8,0.5-17.7,0c-1.4-0.1-2.9-0.1-4.3-0.5c-3.7-1-7.5-1.7-10.9-3.4c-4.3-2.1-8.4-4.6-12.1-7.7   c-7.3-6-12.4-13.4-15.8-22.2c-2.3-6-3.5-12.3-3.6-18.8c0-4.5-0.2-8.9,0.5-13.4c0.6-4,1.6-7.9,2.9-11.8c0.9-2.5,2.1-4.8,3.3-7.1   c2.4-4.4,5.5-8.2,8.9-11.8c2.9-3.1,6.2-5.7,9.8-7.9c3.2-1.9,6.5-3.7,10-4.8c5.9-1.9,12.1-2.7,18.4-2.4c2.8,0.1,5.6,0.5,8.4,0.8   c2.6,0.3,5.2,0.5,7.7,1.1c4.1,1.1,8.3,2.4,12.1,4.4c3.1,1.6,6.1,3.4,9.3,5.1C133.6,55.9,138.4,50.1,143.3,44.3z"></path>
	<path class="st3" d="M234,28c4.9-2.8,9.8-5.7,14.8-8.4c3.9-2.2,7.6-1.9,11.6,1.3c3.9,3.2,5,12,0,15.4c-2,1.3-4.1,2.5-6.1,3.7   c-3.6,2.1-7.1,4.1-10.9,6.4c2.7,1.5,5.1,2.9,7.5,4.4c2.9,1.7,5.7,3.6,8.7,5.2c2.6,1.4,3.6,3.8,4,6.4c0.7,4.2-0.6,7.8-4.2,10.2   c-3.7,2.5-7.5,2.3-11.2,0.1c-4.9-2.9-9.8-5.8-15.1-8.8c-0.1,0.8-0.1,1.4-0.1,1.9c0,5.4-0.2,10.8,0.1,16.2c0.3,5.7-4.6,10-10.3,9.9   c-5.8,0-9.9-4.8-9.8-10c0.2-5,0-10,0-15c0-0.9,0-1.8,0-3.1c-2.5,1.4-4.7,2.7-6.8,3.9c-3.1,1.8-6.1,3.7-9.3,5.3   c-5.3,2.8-11.2,0.9-13.7-4.5c-1.8-3.9-1.3-10.4,3.9-13.2c4.8-2.6,9.5-5.4,14.2-8.1c0.4-0.2,0.8-0.5,1.4-0.9   c-2.3-1.3-4.3-2.5-6.4-3.7c-3.4-2-6.8-3.9-10.1-5.9c-2.3-1.4-3.7-3.6-3.9-6.4c-0.2-3,0.4-5.6,2.2-8.1c1.7-2.2,6.4-4.4,9.2-3.5   c1.4,0.4,2.8,0.9,4.1,1.6c4.7,2.7,9.4,5.4,14.1,8.2c0.2,0.1,0.4,0.2,1,0.4c0-0.8,0-1.4,0-2c0-5.6,0-11.2-0.1-16.7   c0-2.8,1.2-4.9,3.2-6.7c3.4-3.2,9.8-2.8,12.6-0.8c2.8,2,4.3,4.5,4.3,7.9c0,5.1,0,10.2,0,15.2c0,0.8,0.1,1.7,0.1,2.5   c0.1,0.2,0.2,0.4,0.2,0.5C233.5,28.3,233.8,28.2,234,28z"></path>
	<path class="st4" d="M1138.4,22c-0.7-11.3,9.5-21.6,21.4-21.1c11.6,0.4,21.5,7.7,21.4,20.8c-0.1,12.4-8.3,20.9-21.3,21.4   C1148,43.7,1137.7,33,1138.4,22z M1142.9,22.9c-0.1,2.3,0.9,5.3,2.6,8.1c2.3,3.9,5.7,6.4,10.1,7.6c3.4,0.9,6.7,0.7,10.1-0.5   c4.2-1.6,7.3-4.3,9.1-8.3c2.1-4.7,2.2-9.4,0.5-14.3c-3.3-9.5-16.2-14-24.8-7.8C1145.6,11.2,1143,15.9,1142.9,22.9z"></path>
	<path class="st5" d="M234,28c-0.2,0.2-0.5,0.3-0.7,0.5c-0.1-0.2-0.2-0.4-0.2-0.5C233.4,28,233.7,28,234,28z"></path>
	<path class="st6" d="M1170.4,33.2c-0.5,0.2-0.6,0.2-0.7,0.2c-2.8,0.6-4.7-0.3-6-3c-0.8-1.7-2.1-3.2-3.1-4.8   c-1.5-2.3-1.7-2.4-4.9-1.6c0,3,0,6.1,0,9.3c-1.4,0-2.6,0-4.1,0c-0.3-7.6-0.1-15.3-0.1-23.2c0.6-0.1,1.2-0.3,1.7-0.3   c3.1,0,6.2,0,9.2,0c0.4,0,0.8,0,1.2,0.1c4.6,0.5,7,4.4,5.8,8.8c-0.8,2.9-2.6,4.5-5.8,4.9C1166,26.9,1168.1,29.9,1170.4,33.2z    M1155.9,13.1c0,2.5,0,4.7,0,7.2c1.7,0,3.2,0.1,4.6,0c1.1-0.1,2.3-0.4,3.4-0.8c1.5-0.5,1.3-2.1,1.4-3.1c0.1-0.7-0.3-2-1.7-2.6   C1161,12.9,1158.6,13.1,1155.9,13.1z"></path>
</g>
</svg>
