<svg xmlns="http://www.w3.org/2000/svg" xmlns:xlink="http://www.w3.org/1999/xlink" width="500" zoomAndPan="magnify" viewBox="0 0 375 374.999991" height="500" preserveAspectRatio="xMidYMid meet" version="1.0"><defs><g/><clipPath id="731b6fa888"><path d="M 62 78.449219 L 104 78.449219 L 104 268.949219 L 62 268.949219 Z M 62 78.449219 " clip-rule="nonzero"/></clipPath><clipPath id="daa8373583"><path d="M 271 78.449219 L 313 78.449219 L 313 268.785156 L 271 268.785156 Z M 271 78.449219 " clip-rule="nonzero"/></clipPath></defs><g fill="#000000" fill-opacity="1"><g transform="translate(116.378669, 237.468968)"><g><path d="M 12.460938 0 L 12.460938 -31.15625 C 12.960938 -41.625 19.027344 -65.71875 45.863281 -65.71875 C 53.757812 -65.71875 61.566406 -64.308594 64.722656 -62.230469 L 64.722656 0 L 73.03125 0 L 73.03125 -120.058594 L 64.722656 -120.058594 L 64.722656 -72.867188 C 62.5625 -74.277344 53.257812 -74.777344 50.015625 -74.777344 C 24.011719 -74.777344 12.960938 -51.097656 12.460938 -40.628906 L 12.460938 -120.058594 L 4.152344 -120.058594 L 4.152344 0 Z M 12.460938 0 "/></g></g></g><g fill="#000000" fill-opacity="1"><g transform="translate(174.451296, 237.468968)"><g><path d="M 4.152344 -120.058594 L 4.152344 0 L 13.042969 0 C 8.058594 -29.578125 5.816406 -64.558594 5.816406 -88.652344 L 5.816406 -113.328125 C 8.808594 -103.441406 11.050781 -96.710938 15.535156 -82.089844 C 17.117188 -76.9375 18.859375 -71.285156 24.34375 -71.285156 C 30.160156 -71.285156 34.066406 -79.261719 35.894531 -79.261719 C 36.890625 -79.261719 36.640625 -76.855469 35.226562 -73.78125 C 32.570312 -67.964844 26.917969 -58.90625 26.917969 -50.765625 C 26.917969 -37.804688 38.632812 -10.136719 42.125 -0.582031 L 78.433594 -114.160156 L 78.433594 0 L 86.988281 0 L 86.988281 -120.058594 L 78.433594 -120.058594 L 45.78125 -18.363281 C 40.878906 -30.992188 35.144531 -44.449219 35.144531 -57.660156 C 35.144531 -66.550781 39.382812 -70.707031 39.382812 -78.515625 C 39.382812 -79.84375 38.882812 -81.507812 37.304688 -81.507812 C 33.980469 -81.507812 32.820312 -76.023438 29.328125 -76.023438 C 26.585938 -76.023438 25.589844 -79.761719 24.511719 -83.085938 C 18.945312 -100.199219 17.449219 -105.601562 12.878906 -120.058594 Z M 4.152344 -120.058594 "/></g></g></g><g clip-path="url(#731b6fa888)"><path fill="#040606" d="M 102.953125 267 C 102.785156 263.132812 103.5 258.535156 100.636719 255.617188 C 99.886719 254.855469 98.996094 254.238281 98.046875 253.746094 C 97.863281 253.652344 97.679688 253.550781 97.484375 253.476562 C 97.273438 253.394531 97.089844 253.390625 96.867188 253.394531 C 98.207031 255.496094 99.4375 257.457031 100.40625 259.902344 C 100.550781 260.210938 100.214844 260.363281 100.097656 260.042969 C 99.003906 257.5625 97.726562 255.777344 96.191406 253.570312 C 95.902344 254.5 96.011719 255.792969 96.074219 256.542969 C 96.351562 259.804688 98.636719 262.257812 100.84375 264.628906 C 101.558594 265.398438 102.289062 266.183594 102.953125 267 Z M 87.1875 245.980469 C 87.039062 248.554688 87.238281 250.628906 87.925781 252.925781 C 88.023438 253.191406 87.695312 253.304688 87.621094 253.035156 C 86.855469 250.808594 86.46875 248.746094 86.476562 246.25 C 86.050781 246.914062 85.746094 247.984375 85.609375 248.976562 C 84.949219 253.449219 87.246094 255.453125 89.5 258.367188 C 89.507812 257.441406 89.425781 256.65625 89.496094 255.714844 C 89.542969 255.085938 89.628906 254.445312 89.707031 253.824219 C 90.183594 250.675781 90.277344 247.648438 87.1875 245.980469 Z M 79.839844 237.410156 C 80.191406 236.394531 80.160156 235.890625 80.1875 234.855469 C 80.222656 233.683594 80.085938 232.550781 80.050781 231.394531 C 80.046875 230.5 80.023438 229.550781 80.34375 228.636719 C 79.75 229.074219 78.867188 230.203125 78.175781 231.476562 C 76.21875 235.160156 78.480469 239.78125 78.601562 243.765625 C 81.683594 241.0625 83.636719 235.789062 82.460938 231.539062 C 82.171875 230.585938 81.433594 229.644531 80.949219 228.730469 C 80.546875 230.820312 80.875 232.730469 80.730469 234.886719 C 80.648438 235.886719 80.640625 236.511719 80.203125 237.550781 C 80.125 237.789062 79.738281 237.640625 79.839844 237.410156 Z M 82.453125 215.980469 C 82.835938 214.191406 82.222656 212.109375 80.957031 210.921875 C 80.84375 210.816406 80.800781 210.65625 80.847656 210.511719 C 80.890625 210.363281 81.007812 210.253906 81.164062 210.222656 C 85.078125 209.535156 85.820312 208.15625 85.152344 203.988281 C 83.496094 203.121094 81.613281 201.867188 80.738281 199.914062 C 79.925781 200.035156 78.914062 200.605469 78.40625 201.230469 C 78.109375 201.578125 77.558594 201.273438 77.695312 200.839844 C 78.8125 197.683594 77.261719 194.65625 73.734375 195.371094 C 69.675781 196.101562 70.566406 198.871094 70.820312 201.5 C 70.867188 201.875 70.367188 202.097656 70.113281 201.824219 C 67.84375 199.417969 64.894531 200.339844 63.402344 203.121094 C 62.183594 205.515625 64.386719 207.6875 66.824219 208.835938 C 67.105469 208.953125 67.148438 209.359375 66.902344 209.535156 C 63.964844 211.738281 63.625 215.167969 66.675781 217.375 C 70.136719 220.109375 73.347656 217.066406 73.75 214.425781 C 73.824219 213.941406 73.898438 213.59375 74.015625 213.207031 C 74.078125 212.992188 74.273438 212.902344 74.425781 212.9375 C 74.648438 212.984375 74.769531 213.226562 74.707031 213.445312 C 74.28125 214.90625 74.875 216.71875 76.1875 217.953125 C 78.433594 220.195312 81.878906 218.925781 82.453125 215.980469 Z M 89.660156 205.660156 C 89.644531 204.816406 89.414062 203.945312 89.324219 203.269531 C 88.769531 198.320312 85.683594 197.128906 82.355469 194.980469 C 83.039062 198.480469 84.324219 198.835938 86.464844 201.789062 C 86.621094 201.957031 86.332031 202.199219 86.195312 202.015625 C 83.71875 199.425781 82.101562 198.757812 81.664062 195.117188 C 81.441406 195.585938 81.234375 196.035156 81.144531 196.570312 C 80.34375 201.832031 85.710938 202.898438 89.660156 205.660156 Z M 85.1875 209.359375 C 84.558594 210.023438 83.585938 210.503906 82.148438 210.851562 C 83.507812 212.996094 86.796875 213.339844 88.472656 215.597656 C 88.644531 215.808594 88.390625 215.949219 88.234375 215.71875 C 87.050781 214.125 84.726562 213.738281 82.949219 212.503906 C 83.191406 213.132812 83.335938 213.808594 83.378906 214.488281 C 83.722656 215.207031 84.597656 215.742188 85.375 216.210938 C 87.460938 217.542969 89.570312 218.519531 91.617188 219.96875 C 91.546875 217.652344 90.308594 213.402344 89.078125 212.1875 C 88.214844 211.332031 86.074219 210.203125 85.1875 209.359375 Z M 71.011719 185.664062 C 71.617188 182.53125 72.734375 180.386719 74.453125 177.960938 C 73.558594 178.25 72.574219 178.484375 71.8125 178.992188 C 67.042969 182.210938 68.226562 187.160156 68.589844 192.710938 C 69.097656 192.039062 70.074219 190.457031 70.457031 190.007812 C 73.652344 186.480469 76.25 182.988281 74.964844 178.460938 C 73.164062 180.757812 72 182.683594 71.257812 185.742188 C 71.214844 185.992188 70.945312 185.90625 71.011719 185.664062 Z M 74.453125 169.414062 C 72.734375 166.992188 71.617188 164.84375 71.011719 161.714844 C 70.945312 161.46875 71.214844 161.382812 71.257812 161.632812 C 72 164.691406 73.164062 166.617188 74.964844 168.917969 C 76.25 164.386719 73.652344 160.894531 70.457031 157.367188 C 70.074219 156.921875 69.097656 155.335938 68.589844 154.667969 C 68.226562 160.214844 67.042969 165.164062 71.8125 168.382812 C 72.574219 168.890625 73.558594 169.128906 74.453125 169.414062 Z M 86.464844 145.585938 C 84.324219 148.539062 83.039062 148.898438 82.355469 152.398438 C 85.683594 150.246094 88.769531 149.054688 89.324219 144.105469 C 89.414062 143.433594 89.644531 142.558594 89.660156 141.714844 C 85.710938 144.480469 80.34375 145.546875 81.144531 150.804688 C 81.234375 151.339844 81.441406 151.789062 81.664062 152.261719 C 82.101562 148.621094 83.71875 147.949219 86.195312 145.359375 C 86.332031 145.175781 86.621094 145.417969 86.464844 145.585938 Z M 77.695312 146.535156 C 77.558594 146.105469 78.109375 145.796875 78.40625 146.148438 C 78.914062 146.773438 79.925781 147.34375 80.738281 147.460938 C 81.613281 145.511719 83.496094 144.253906 85.152344 143.386719 C 85.820312 139.222656 85.078125 137.839844 81.164062 137.152344 C 81.007812 137.125 80.890625 137.015625 80.847656 136.867188 C 80.800781 136.71875 80.84375 136.558594 80.957031 136.453125 C 82.222656 135.265625 82.835938 133.1875 82.453125 131.394531 C 81.878906 128.453125 78.433594 127.179688 76.1875 129.421875 C 74.875 130.65625 74.28125 132.46875 74.707031 133.933594 C 74.769531 134.148438 74.648438 134.390625 74.425781 134.441406 C 74.273438 134.472656 74.078125 134.386719 74.015625 134.167969 C 73.898438 133.78125 73.824219 133.4375 73.75 132.949219 C 73.347656 130.308594 70.136719 127.269531 66.675781 130 C 63.625 132.210938 63.964844 135.636719 66.902344 137.84375 C 67.148438 138.015625 67.105469 138.425781 66.824219 138.539062 C 64.386719 139.691406 62.183594 141.863281 63.402344 144.253906 C 64.894531 147.039062 67.84375 147.960938 70.113281 145.550781 C 70.367188 145.277344 70.867188 145.503906 70.820312 145.875 C 70.566406 148.507812 69.675781 151.273438 73.734375 152.003906 C 77.261719 152.722656 78.8125 149.695312 77.695312 146.535156 Z M 83.378906 132.890625 C 83.335938 133.570312 83.191406 134.242188 82.949219 134.871094 C 84.726562 133.636719 87.050781 133.253906 88.234375 131.65625 C 88.390625 131.429688 88.644531 131.566406 88.472656 131.78125 C 86.796875 134.035156 83.507812 134.382812 82.148438 136.527344 C 83.585938 136.875 84.558594 137.355469 85.1875 138.019531 C 86.074219 137.175781 88.214844 136.042969 89.078125 135.191406 C 90.308594 133.972656 91.546875 129.722656 91.617188 127.410156 C 89.570312 128.855469 87.460938 129.832031 85.375 131.167969 C 84.597656 131.636719 83.722656 132.167969 83.378906 132.890625 Z M 80.34375 118.742188 C 80.023438 117.828125 80.046875 116.875 80.050781 115.980469 C 80.085938 114.824219 80.222656 113.691406 80.1875 112.519531 C 80.160156 111.484375 80.191406 110.984375 79.839844 109.964844 C 79.738281 109.738281 80.125 109.589844 80.203125 109.828125 C 80.640625 110.867188 80.648438 111.488281 80.730469 112.492188 C 80.875 114.644531 80.546875 116.558594 80.949219 118.644531 C 81.433594 117.730469 82.171875 116.789062 82.460938 115.839844 C 83.636719 111.589844 81.683594 106.3125 78.601562 103.609375 C 78.480469 107.597656 76.21875 112.21875 78.175781 115.902344 C 78.867188 117.171875 79.75 118.300781 80.34375 118.742188 Z M 87.925781 94.449219 C 87.238281 96.746094 87.039062 98.820312 87.1875 101.394531 C 90.277344 99.726562 90.183594 96.699219 89.707031 93.554688 C 89.628906 92.933594 89.542969 92.289062 89.496094 91.664062 C 89.425781 90.722656 89.507812 89.9375 89.5 89.007812 C 87.246094 91.925781 84.949219 93.929688 85.609375 98.398438 C 85.746094 99.394531 86.050781 100.460938 86.476562 101.128906 C 86.46875 98.628906 86.855469 96.570312 87.621094 94.34375 C 87.695312 94.070312 88.023438 94.1875 87.925781 94.449219 Z M 100.40625 87.472656 C 99.4375 89.921875 98.207031 91.882812 96.867188 93.984375 C 97.089844 93.984375 97.273438 93.980469 97.484375 93.898438 C 97.679688 93.828125 97.863281 93.726562 98.046875 93.632812 C 98.996094 93.140625 99.886719 92.523438 100.636719 91.757812 C 103.5 88.839844 102.785156 84.242188 102.953125 80.375 C 102.289062 81.195312 101.558594 81.980469 100.84375 82.746094 C 98.636719 85.121094 96.351562 87.574219 96.074219 90.832031 C 96.011719 91.582031 95.902344 92.878906 96.191406 93.808594 C 97.726562 91.601562 99.003906 89.8125 100.097656 87.332031 C 100.214844 87.011719 100.550781 87.167969 100.40625 87.472656 Z M 89.949219 113.949219 C 93.316406 113.390625 97.953125 110.796875 99.144531 105.550781 C 99.484375 103.945312 99.660156 102.410156 99.582031 101.84375 C 98.894531 102.136719 97.023438 103.320312 95.882812 104.128906 C 93.257812 105.980469 91.515625 108.464844 90.382812 112.023438 C 91.773438 110.199219 93.851562 108.074219 95.632812 107.136719 C 95.941406 106.929688 96.128906 107.277344 95.800781 107.457031 C 93.832031 108.804688 91.160156 112.140625 89.949219 113.949219 Z M 91.1875 154.78125 C 88.867188 156.589844 86.984375 159.441406 85.214844 161.746094 C 90.871094 161.214844 95.359375 157.328125 96.230469 152.085938 C 96.855469 148.933594 96.855469 147.875 96.78125 147.515625 C 96.53125 147.695312 96.332031 147.925781 96.148438 148.085938 C 95.097656 148.988281 93.878906 149.59375 92.828125 150.476562 C 89.074219 153.726562 85.304688 154.878906 84.835938 160.894531 C 86.535156 158.617188 88.625 156.03125 91.050781 154.410156 C 91.367188 154.164062 91.527344 154.5625 91.1875 154.78125 Z M 85.214844 185.628906 C 86.984375 187.933594 88.867188 190.785156 91.1875 192.597656 C 91.527344 192.816406 91.367188 193.214844 91.050781 192.964844 C 88.625 191.34375 86.535156 188.761719 84.835938 186.480469 C 85.304688 192.496094 89.074219 193.648438 92.828125 196.902344 C 93.878906 197.785156 95.097656 198.390625 96.148438 199.289062 C 96.332031 199.449219 96.53125 199.679688 96.78125 199.859375 C 96.855469 199.503906 96.855469 198.441406 96.230469 195.292969 C 95.359375 190.050781 90.871094 186.164062 85.214844 185.628906 Z M 89.949219 233.429688 C 91.160156 235.238281 93.832031 238.574219 95.800781 239.921875 C 96.128906 240.097656 95.941406 240.445312 95.632812 240.238281 C 93.851562 239.300781 91.773438 237.175781 90.382812 235.351562 C 91.515625 238.914062 93.257812 241.398438 95.882812 243.246094 C 97.023438 244.054688 98.894531 245.238281 99.582031 245.53125 C 99.660156 244.964844 99.484375 243.429688 99.144531 241.824219 C 97.953125 236.578125 93.316406 233.988281 89.949219 233.429688 Z M 103.132812 268.59375 C 100.429688 264.738281 95.6875 261.722656 95.257812 256.609375 C 95.175781 255.667969 95.03125 253.925781 95.628906 252.792969 C 93.914062 250.191406 92.078125 247.765625 90.558594 244.996094 C 89.519531 243.101562 88.5625 241.09375 87.699219 239 C 86.800781 242.019531 87.097656 243.410156 87.265625 245.03125 C 88.082031 245.648438 88.804688 245.917969 89.507812 246.828125 C 91.945312 250.070312 90.089844 253.773438 90.304688 257.328125 C 90.324219 257.992188 90.34375 258.679688 90.261719 259.570312 C 90.238281 259.9375 89.71875 260.078125 89.519531 259.769531 C 87.039062 256.261719 84.035156 254.207031 84.792969 248.863281 C 84.921875 247.949219 85.332031 245.867188 86.445312 245.082031 C 86.253906 243.289062 85.914062 241.496094 87.226562 237.835938 C 85.28125 232.871094 83.855469 227.433594 83.027344 222.078125 C 82.070312 223.71875 81.425781 226.15625 81.433594 227.835938 C 81.902344 228.96875 82.898438 230.09375 83.25 231.304688 C 84.578125 236.035156 82.214844 242.382812 78.398438 244.90625 C 78.132812 245.070312 77.761719 244.851562 77.785156 244.539062 C 77.90625 240.230469 75.207031 235.203125 77.453125 231.085938 C 77.773438 230.5 79.25 227.886719 80.601562 227.644531 C 80.679688 225.578125 81.507812 222.582031 82.851562 220.878906 C 82.714844 219.90625 82.601562 218.933594 82.5 217.957031 C 79.921875 221.476562 75.335938 219.929688 74.023438 216.050781 C 72.496094 218.769531 69.738281 220.625 66.183594 218.03125 C 62.925781 215.683594 62.960938 211.859375 65.902344 209.296875 C 63.292969 207.851562 61.304688 205.421875 62.679688 202.734375 C 64.230469 199.972656 67.035156 198.539062 69.878906 200.539062 C 69.609375 198.335938 69.335938 195.425781 73.40625 194.601562 C 77.027344 193.792969 79.339844 196.34375 78.789062 199.824219 C 79.308594 199.492188 79.898438 199.242188 80.457031 199.132812 C 80.234375 198.339844 80.171875 197.449219 80.335938 196.441406 C 80.441406 195.777344 80.695312 195.246094 80.941406 194.730469 C 81.085938 194.417969 81.226562 194.125 81.335938 193.800781 C 81.203125 189.996094 80.472656 187.136719 79.695312 184.121094 C 79.414062 183 77.871094 178.632812 77.828125 175.035156 C 77.8125 174.945312 77.796875 174.855469 77.777344 174.765625 C 77.191406 175.785156 76.402344 176.71875 75.652344 177.421875 C 75.652344 177.875 75.789062 178.320312 75.871094 178.777344 C 76.984375 183.394531 74.265625 187.019531 71.070312 190.554688 C 70.941406 190.695312 70.597656 191.21875 70.261719 191.71875 C 68.960938 193.683594 68.75 193.921875 68.382812 193.878906 C 67.753906 193.804688 67.777344 192.914062 67.753906 192.378906 C 67.246094 186.511719 66.464844 181.679688 71.355469 178.3125 C 72.460938 177.574219 73.835938 177.378906 75.023438 176.886719 C 75.871094 176.105469 76.851562 174.921875 77.414062 173.6875 C 76.851562 172.457031 75.871094 171.273438 75.023438 170.488281 C 73.835938 169.996094 72.460938 169.804688 71.355469 169.0625 C 66.464844 165.699219 67.246094 160.863281 67.753906 155 C 67.777344 154.464844 67.753906 153.570312 68.382812 153.496094 C 68.75 153.453125 68.960938 153.695312 70.261719 155.65625 C 70.597656 156.160156 70.941406 156.679688 71.070312 156.824219 C 74.265625 160.355469 76.984375 163.984375 75.871094 168.601562 C 75.789062 169.058594 75.652344 169.5 75.652344 169.953125 C 76.402344 170.660156 77.191406 171.589844 77.777344 172.609375 C 77.796875 172.519531 77.8125 172.433594 77.828125 172.339844 C 77.871094 168.746094 79.414062 164.378906 79.695312 163.257812 C 80.472656 160.238281 81.203125 157.378906 81.335938 153.574219 C 81.226562 153.253906 81.085938 152.957031 80.941406 152.644531 C 80.695312 152.132812 80.441406 151.601562 80.335938 150.933594 C 80.171875 149.925781 80.234375 149.035156 80.457031 148.246094 C 79.898438 148.136719 79.308594 147.886719 78.789062 147.550781 C 79.339844 151.035156 77.027344 153.585938 73.40625 152.777344 C 69.335938 151.953125 69.609375 149.042969 69.878906 146.839844 C 67.035156 148.839844 64.230469 147.40625 62.679688 144.640625 C 61.304688 141.957031 63.292969 139.527344 65.902344 138.082031 C 62.960938 135.519531 62.925781 131.695312 66.183594 129.347656 C 69.738281 126.753906 72.496094 128.609375 74.023438 131.328125 C 75.335938 127.445312 79.921875 125.902344 82.5 129.421875 C 82.601562 128.445312 82.714844 127.46875 82.851562 126.5 C 81.507812 124.792969 80.679688 121.800781 80.601562 119.734375 C 79.25 119.488281 77.773438 116.875 77.453125 116.289062 C 75.207031 112.175781 77.90625 107.144531 77.785156 102.839844 C 77.761719 102.527344 78.132812 102.308594 78.398438 102.46875 C 82.214844 104.996094 84.578125 111.339844 83.25 116.070312 C 82.898438 117.28125 81.902344 118.410156 81.433594 119.542969 C 81.425781 121.222656 82.070312 123.65625 83.027344 125.296875 C 83.855469 119.941406 85.28125 114.503906 87.226562 109.542969 C 85.914062 105.878906 86.253906 104.085938 86.445312 102.296875 C 85.332031 101.511719 84.921875 99.429688 84.792969 98.515625 C 84.035156 93.171875 87.039062 91.113281 89.519531 87.609375 C 89.71875 87.296875 90.238281 87.4375 90.261719 87.804688 C 90.34375 88.695312 90.324219 89.386719 90.304688 90.046875 C 90.089844 93.601562 91.945312 97.308594 89.507812 100.546875 C 88.804688 101.457031 88.082031 101.726562 87.265625 102.347656 C 87.097656 103.964844 86.800781 105.359375 87.699219 108.378906 C 88.5625 106.285156 89.519531 104.273438 90.558594 102.378906 C 92.078125 99.613281 93.914062 97.183594 95.628906 94.582031 C 95.03125 93.449219 95.175781 91.710938 95.257812 90.765625 C 95.6875 85.652344 100.429688 82.640625 103.132812 78.785156 C 103.367188 78.433594 103.933594 78.65625 103.878906 79.066406 C 103.390625 83.476562 104.679688 88.816406 101.222656 92.332031 C 100.859375 92.699219 100.46875 93.039062 100.050781 93.351562 C 99.617188 93.671875 99.160156 93.960938 98.683594 94.21875 C 98.164062 94.503906 97.671875 94.78125 97.066406 94.800781 C 96.972656 94.804688 96.585938 94.828125 96.453125 94.820312 C 95.898438 95.683594 95.300781 96.535156 94.734375 97.367188 C 90.507812 103.21875 87.722656 109.503906 85.703125 116.75 C 86.589844 115.652344 87.738281 114.660156 89.023438 113.898438 C 90.449219 107.726562 92.988281 104.703125 97.765625 101.914062 C 99.4375 100.890625 99.839844 100.8125 100.128906 101.101562 C 100.796875 101.496094 100.082031 105.136719 99.949219 105.71875 C 98.875 110.800781 94.628906 113.160156 92.855469 113.9375 C 91.589844 114.476562 90.105469 114.941406 89.253906 114.714844 C 87.269531 115.941406 85.664062 117.75 84.984375 119.550781 C 84.117188 123.234375 83.511719 127.035156 83.191406 130.863281 C 83.199219 131.109375 83.308594 131.363281 83.328125 131.617188 C 83.949219 131.03125 84.675781 130.640625 85.359375 130.214844 C 87.511719 128.863281 89.738281 127.855469 91.742188 126.292969 C 91.980469 126.097656 92.375 126.257812 92.402344 126.5625 C 92.691406 128.789062 91.238281 134.210938 89.652344 135.773438 C 88.789062 136.660156 86.515625 137.84375 85.675781 138.6875 C 86.234375 139.71875 86.265625 141.09375 86.042969 142.929688 C 87.03125 142.371094 87.871094 141.933594 88.828125 141.289062 C 89.023438 141.15625 89.234375 141.015625 89.398438 140.90625 C 89.6875 140.710938 89.988281 140.515625 90.234375 140.816406 C 90.726562 141.28125 90.335938 143.078125 90.136719 144.203125 C 89.46875 149.917969 85.820312 151.007812 82.160156 153.511719 C 82.011719 157.910156 81.128906 160.921875 80.21875 164.523438 C 81.261719 163.398438 82.660156 162.542969 83.949219 161.867188 C 84.203125 154.511719 88.085938 153.457031 92.296875 149.851562 C 93.390625 148.917969 94.699219 148.300781 95.742188 147.34375 C 96.125 146.96875 96.703125 146.402344 97.214844 146.722656 C 97.730469 147.042969 97.867188 148.050781 97.039062 152.242188 C 96.132812 158.269531 90.261719 162.542969 84.238281 162.640625 C 82.265625 163.6875 80.042969 165.164062 79.542969 167.402344 C 79.402344 168.054688 79.269531 168.734375 79.148438 169.441406 C 78.894531 170.671875 78.761719 172.160156 78.710938 173.6875 C 78.761719 175.214844 78.894531 176.707031 79.148438 177.9375 C 79.269531 178.644531 79.402344 179.320312 79.542969 179.972656 C 80.042969 182.210938 82.265625 183.6875 84.238281 184.738281 C 90.261719 184.835938 96.132812 189.105469 97.039062 195.132812 C 97.867188 199.328125 97.730469 200.332031 97.214844 200.652344 C 96.703125 200.972656 96.125 200.40625 95.742188 200.035156 C 94.699219 199.078125 93.390625 198.460938 92.296875 197.523438 C 88.085938 193.917969 84.203125 192.863281 83.949219 185.507812 C 82.660156 184.832031 81.261719 183.980469 80.21875 182.855469 C 81.128906 186.453125 82.011719 189.46875 82.160156 193.867188 C 85.820312 196.371094 89.46875 197.460938 90.136719 203.175781 C 90.335938 204.300781 90.726562 206.097656 90.234375 206.5625 C 89.988281 206.863281 89.6875 206.664062 89.398438 206.472656 C 89.234375 206.363281 89.023438 206.21875 88.828125 206.085938 C 87.871094 205.445312 87.03125 205.003906 86.042969 204.449219 C 86.265625 206.285156 86.234375 207.65625 85.675781 208.6875 C 86.515625 209.53125 88.789062 210.714844 89.652344 211.605469 C 91.238281 213.164062 92.691406 218.589844 92.402344 220.8125 C 92.375 221.117188 91.980469 221.28125 91.742188 221.085938 C 89.738281 219.523438 87.511719 218.515625 85.359375 217.160156 C 84.675781 216.734375 83.949219 216.347656 83.328125 215.757812 C 83.308594 216.011719 83.199219 216.265625 83.191406 216.515625 C 83.511719 220.339844 84.117188 224.144531 84.984375 227.824219 C 85.664062 229.625 87.269531 231.4375 89.253906 232.660156 C 90.105469 232.4375 91.589844 232.902344 92.855469 233.4375 C 94.628906 234.21875 98.875 236.578125 99.949219 241.660156 C 100.082031 242.238281 100.796875 245.882812 100.128906 246.277344 C 99.839844 246.566406 99.4375 246.484375 97.765625 245.464844 C 92.988281 242.675781 90.449219 239.648438 89.023438 233.476562 C 87.738281 232.71875 86.589844 231.722656 85.703125 230.628906 C 87.722656 237.871094 90.507812 244.15625 94.734375 250.011719 C 95.300781 250.84375 95.898438 251.695312 96.453125 252.558594 C 96.585938 252.550781 96.972656 252.574219 97.066406 252.578125 C 97.671875 252.597656 98.164062 252.875 98.683594 253.15625 C 99.160156 253.414062 99.617188 253.703125 100.050781 254.027344 C 100.46875 254.335938 100.859375 254.675781 101.222656 255.046875 C 104.679688 258.558594 103.390625 263.898438 103.878906 268.3125 C 103.933594 268.722656 103.367188 268.941406 103.132812 268.59375 Z M 77.390625 212.878906 C 76.609375 211.65625 75.980469 210.367188 76.125 208.953125 C 76.164062 208.675781 76.207031 208.40625 76.230469 208.101562 C 77.375 208.75 78.828125 208.441406 79.453125 207.925781 C 79.597656 207.820312 79.414062 207.59375 79.277344 207.710938 C 78.722656 208.128906 77.238281 208.234375 76.410156 207.5625 C 76.265625 207.457031 76.207031 207.417969 76.066406 207.199219 C 75.460938 206.078125 75.460938 204.847656 76.257812 203.8125 C 76.394531 203.671875 76.152344 203.457031 76.03125 203.609375 C 75.171875 204.492188 74.773438 206.039062 75.425781 207.167969 C 73.855469 206.75 72.960938 206.257812 72.457031 204.433594 C 72.441406 204.261719 72.160156 204.304688 72.195312 204.472656 C 72.226562 206.160156 73.269531 207.484375 74.828125 207.714844 C 73.074219 208.375 71.746094 207.867188 69.863281 207.402344 C 69.703125 207.328125 69.59375 207.59375 69.761719 207.652344 C 71.449219 208.59375 73.078125 208.972656 74.894531 208.484375 C 74.308594 209.359375 73.933594 209.929688 72.980469 210.652344 C 72.824219 210.738281 72.972656 210.984375 73.117188 210.886719 C 73.855469 210.558594 74.398438 210.183594 74.835938 209.707031 C 75.046875 209.472656 75.246094 209.226562 75.402344 208.9375 C 75.378906 210.496094 76.152344 211.890625 77.089844 213.089844 C 77.21875 213.289062 77.53125 213.066406 77.390625 212.878906 Z M 76.03125 143.765625 C 75.171875 142.882812 74.773438 141.339844 75.425781 140.207031 C 73.855469 140.625 72.960938 141.121094 72.457031 142.945312 C 72.441406 143.113281 72.160156 143.074219 72.195312 142.90625 C 72.226562 141.214844 73.269531 139.890625 74.828125 139.660156 C 73.074219 139.003906 71.746094 139.507812 69.863281 139.976562 C 69.703125 140.050781 69.59375 139.78125 69.761719 139.722656 C 71.449219 138.785156 73.078125 138.40625 74.894531 138.894531 C 74.308594 138.015625 73.933594 137.445312 72.980469 136.722656 C 72.824219 136.640625 72.972656 136.390625 73.117188 136.488281 C 73.855469 136.816406 74.398438 137.191406 74.835938 137.667969 C 75.046875 137.90625 75.246094 138.152344 75.402344 138.4375 C 75.378906 136.878906 76.152344 135.484375 77.089844 134.285156 C 77.21875 134.085938 77.53125 134.3125 77.390625 134.496094 C 76.609375 135.722656 75.980469 137.007812 76.125 138.421875 C 76.164062 138.703125 76.207031 138.96875 76.230469 139.273438 C 77.375 138.628906 78.828125 138.9375 79.453125 139.449219 C 79.597656 139.554688 79.414062 139.785156 79.277344 139.667969 C 78.722656 139.246094 77.238281 139.140625 76.410156 139.816406 C 76.265625 139.917969 76.207031 139.960938 76.066406 140.179688 C 75.460938 141.296875 75.460938 142.53125 76.257812 143.566406 C 76.394531 143.707031 76.152344 143.921875 76.03125 143.765625 " fill-opacity="1" fill-rule="nonzero"/></g><g clip-path="url(#daa8373583)"><path fill="#040606" d="M 272.039062 80.234375 C 272.207031 84.101562 271.496094 88.699219 274.359375 91.617188 C 275.109375 92.378906 276 92.996094 276.949219 93.488281 C 277.132812 93.582031 277.316406 93.683594 277.511719 93.757812 C 277.71875 93.839844 277.90625 93.84375 278.128906 93.839844 C 276.789062 91.738281 275.558594 89.777344 274.589844 87.332031 C 274.445312 87.023438 274.78125 86.871094 274.894531 87.191406 C 275.988281 89.671875 277.265625 91.457031 278.800781 93.664062 C 279.09375 92.734375 278.980469 91.441406 278.917969 90.691406 C 278.640625 87.429688 276.359375 84.976562 274.152344 82.605469 C 273.4375 81.835938 272.703125 81.050781 272.039062 80.234375 Z M 287.804688 101.253906 C 287.957031 98.679688 287.757812 96.605469 287.066406 94.308594 C 286.96875 94.042969 287.300781 93.929688 287.371094 94.199219 C 288.136719 96.425781 288.523438 98.488281 288.519531 100.984375 C 288.941406 100.320312 289.246094 99.25 289.386719 98.257812 C 290.046875 93.785156 287.746094 91.78125 285.492188 88.867188 C 285.484375 89.792969 285.570312 90.578125 285.5 91.519531 C 285.449219 92.148438 285.367188 92.789062 285.285156 93.410156 C 284.8125 96.558594 284.71875 99.585938 287.804688 101.253906 Z M 295.15625 109.824219 C 294.800781 110.839844 294.835938 111.34375 294.804688 112.378906 C 294.773438 113.550781 294.910156 114.683594 294.941406 115.839844 C 294.949219 116.734375 294.96875 117.683594 294.652344 118.597656 C 295.246094 118.160156 296.128906 117.03125 296.816406 115.757812 C 298.777344 112.074219 296.511719 107.453125 296.390625 103.46875 C 293.308594 106.171875 291.359375 111.445312 292.53125 115.695312 C 292.820312 116.648438 293.5625 117.589844 294.042969 118.503906 C 294.449219 116.414062 294.117188 114.503906 294.265625 112.347656 C 294.347656 111.347656 294.355469 110.722656 294.792969 109.683594 C 294.871094 109.445312 295.253906 109.59375 295.15625 109.824219 Z M 292.539062 131.253906 C 292.15625 133.042969 292.773438 135.125 294.035156 136.3125 C 294.148438 136.417969 294.191406 136.578125 294.148438 136.722656 C 294.105469 136.871094 293.984375 136.980469 293.828125 137.011719 C 289.917969 137.699219 289.175781 139.078125 289.839844 143.246094 C 291.5 144.109375 293.382812 145.367188 294.253906 147.320312 C 295.066406 147.199219 296.082031 146.628906 296.589844 146.003906 C 296.882812 145.65625 297.4375 145.960938 297.296875 146.394531 C 296.183594 149.550781 297.734375 152.578125 301.261719 151.863281 C 305.320312 151.132812 304.429688 148.363281 304.175781 145.734375 C 304.128906 145.359375 304.625 145.136719 304.878906 145.410156 C 307.152344 147.816406 310.101562 146.894531 311.59375 144.113281 C 312.808594 141.71875 310.609375 139.546875 308.167969 138.394531 C 307.890625 138.28125 307.847656 137.875 308.089844 137.699219 C 311.03125 135.496094 311.367188 132.066406 308.316406 129.859375 C 304.855469 127.125 301.648438 130.167969 301.242188 132.808594 C 301.167969 133.292969 301.09375 133.640625 300.980469 134.027344 C 300.914062 134.242188 300.722656 134.332031 300.570312 134.296875 C 300.347656 134.25 300.226562 134.007812 300.289062 133.789062 C 300.714844 132.328125 300.117188 130.515625 298.808594 129.28125 C 296.5625 127.039062 293.117188 128.308594 292.539062 131.253906 Z M 285.332031 141.574219 C 285.351562 142.417969 285.578125 143.289062 285.671875 143.964844 C 286.222656 148.914062 289.3125 150.105469 292.636719 152.253906 C 291.953125 148.753906 290.671875 148.398438 288.527344 145.445312 C 288.375 145.277344 288.660156 145.035156 288.800781 145.21875 C 291.273438 147.808594 292.890625 148.476562 293.328125 152.117188 C 293.554688 151.648438 293.761719 151.199219 293.847656 150.664062 C 294.652344 145.402344 289.285156 144.335938 285.332031 141.574219 Z M 289.808594 137.875 C 290.4375 137.210938 291.410156 136.730469 292.84375 136.382812 C 291.488281 134.238281 288.195312 133.894531 286.523438 131.636719 C 286.347656 131.425781 286.605469 131.285156 286.757812 131.515625 C 287.945312 133.109375 290.265625 133.496094 292.046875 134.730469 C 291.804688 134.101562 291.65625 133.425781 291.617188 132.746094 C 291.273438 132.027344 290.394531 131.492188 289.617188 131.023438 C 287.53125 129.691406 285.425781 128.714844 283.378906 127.265625 C 283.445312 129.582031 284.683594 133.832031 285.917969 135.046875 C 286.78125 135.902344 288.921875 137.03125 289.808594 137.875 Z M 303.980469 161.570312 C 303.375 164.703125 302.261719 166.847656 300.542969 169.273438 C 301.4375 168.984375 302.421875 168.746094 303.179688 168.242188 C 307.949219 165.023438 306.769531 160.074219 306.402344 154.523438 C 305.898438 155.195312 304.917969 156.777344 304.539062 157.226562 C 301.34375 160.753906 298.746094 164.246094 300.027344 168.773438 C 301.832031 166.476562 302.992188 164.550781 303.738281 161.492188 C 303.78125 161.242188 304.046875 161.328125 303.980469 161.570312 Z M 300.542969 177.820312 C 302.261719 180.242188 303.375 182.390625 303.980469 185.519531 C 304.046875 185.765625 303.78125 185.851562 303.738281 185.601562 C 302.992188 182.542969 301.832031 180.617188 300.027344 178.316406 C 298.746094 182.847656 301.34375 186.339844 304.539062 189.867188 C 304.917969 190.3125 305.898438 191.898438 306.402344 192.566406 C 306.769531 187.019531 307.949219 182.070312 303.179688 178.851562 C 302.421875 178.34375 301.4375 178.105469 300.542969 177.820312 Z M 288.527344 201.648438 C 290.671875 198.695312 291.953125 198.335938 292.636719 194.835938 C 289.3125 196.988281 286.222656 198.179688 285.671875 203.128906 C 285.578125 203.800781 285.351562 204.675781 285.332031 205.519531 C 289.285156 202.753906 294.652344 201.6875 293.847656 196.429688 C 293.761719 195.894531 293.554688 195.445312 293.328125 194.972656 C 292.890625 198.613281 291.273438 199.285156 288.800781 201.875 C 288.660156 202.058594 288.375 201.816406 288.527344 201.648438 Z M 297.296875 200.699219 C 297.4375 201.128906 296.882812 201.4375 296.589844 201.085938 C 296.082031 200.460938 295.066406 199.890625 294.253906 199.773438 C 293.382812 201.722656 291.5 202.980469 289.839844 203.847656 C 289.175781 208.011719 289.917969 209.394531 293.828125 210.082031 C 293.984375 210.109375 294.105469 210.21875 294.148438 210.367188 C 294.191406 210.515625 294.148438 210.675781 294.035156 210.78125 C 292.773438 211.96875 292.15625 214.046875 292.539062 215.839844 C 293.117188 218.78125 296.5625 220.054688 298.808594 217.8125 C 300.117188 216.574219 300.714844 214.765625 300.289062 213.300781 C 300.226562 213.085938 300.347656 212.84375 300.570312 212.792969 C 300.722656 212.761719 300.914062 212.847656 300.980469 213.066406 C 301.09375 213.453125 301.167969 213.796875 301.242188 214.285156 C 301.648438 216.925781 304.855469 219.964844 308.316406 217.234375 C 311.367188 215.023438 311.03125 211.597656 308.089844 209.390625 C 307.847656 209.21875 307.890625 208.808594 308.167969 208.695312 C 310.609375 207.542969 312.808594 205.371094 311.59375 202.980469 C 310.101562 200.195312 307.152344 199.273438 304.878906 201.683594 C 304.625 201.957031 304.128906 201.730469 304.175781 201.359375 C 304.429688 198.726562 305.320312 195.960938 301.261719 195.230469 C 297.734375 194.511719 296.183594 197.539062 297.296875 200.699219 Z M 291.617188 214.34375 C 291.65625 213.664062 291.804688 212.992188 292.046875 212.363281 C 290.265625 213.597656 287.945312 213.980469 286.757812 215.578125 C 286.605469 215.804688 286.347656 215.667969 286.523438 215.453125 C 288.195312 213.199219 291.488281 212.851562 292.84375 210.707031 C 291.410156 210.359375 290.4375 209.878906 289.808594 209.214844 C 288.921875 210.058594 286.78125 211.191406 285.917969 212.042969 C 284.683594 213.261719 283.445312 217.511719 283.378906 219.824219 C 285.425781 218.375 287.53125 217.402344 289.617188 216.066406 C 290.394531 215.597656 291.273438 215.066406 291.617188 214.34375 Z M 294.652344 228.492188 C 294.96875 229.40625 294.949219 230.359375 294.941406 231.253906 C 294.910156 232.410156 294.773438 233.542969 294.804688 234.714844 C 294.835938 235.75 294.800781 236.25 295.15625 237.269531 C 295.253906 237.496094 294.871094 237.644531 294.792969 237.40625 C 294.355469 236.367188 294.347656 235.746094 294.265625 234.742188 C 294.117188 232.589844 294.449219 230.675781 294.042969 228.589844 C 293.5625 229.5 292.820312 230.445312 292.53125 231.394531 C 291.359375 235.644531 293.308594 240.921875 296.390625 243.625 C 296.511719 239.636719 298.777344 235.015625 296.816406 231.332031 C 296.128906 230.0625 295.246094 228.933594 294.652344 228.492188 Z M 287.066406 252.785156 C 287.757812 250.488281 287.957031 248.414062 287.804688 245.839844 C 284.71875 247.507812 284.8125 250.535156 285.285156 253.679688 C 285.367188 254.300781 285.449219 254.945312 285.5 255.570312 C 285.570312 256.511719 285.484375 257.296875 285.492188 258.226562 C 287.746094 255.308594 290.046875 253.304688 289.386719 248.835938 C 289.246094 247.839844 288.941406 246.769531 288.519531 246.105469 C 288.523438 248.605469 288.136719 250.664062 287.371094 252.890625 C 287.300781 253.164062 286.96875 253.046875 287.066406 252.785156 Z M 274.589844 259.761719 C 275.558594 257.3125 276.789062 255.351562 278.128906 253.25 C 277.90625 253.25 277.71875 253.253906 277.511719 253.335938 C 277.316406 253.40625 277.132812 253.507812 276.949219 253.601562 C 276 254.09375 275.109375 254.710938 274.359375 255.476562 C 271.496094 258.394531 272.207031 262.992188 272.039062 266.855469 C 272.703125 266.039062 273.4375 265.253906 274.152344 264.488281 C 276.359375 262.113281 278.640625 259.660156 278.917969 256.402344 C 278.980469 255.652344 279.09375 254.355469 278.800781 253.425781 C 277.265625 255.632812 275.988281 257.421875 274.894531 259.902344 C 274.78125 260.222656 274.445312 260.066406 274.589844 259.761719 Z M 285.046875 233.285156 C 281.675781 233.84375 277.039062 236.4375 275.847656 241.683594 C 275.511719 243.289062 275.335938 244.820312 275.410156 245.390625 C 276.101562 245.097656 277.96875 243.914062 279.113281 243.105469 C 281.738281 241.253906 283.480469 238.769531 284.609375 235.207031 C 283.21875 237.035156 281.144531 239.160156 279.363281 240.097656 C 279.050781 240.304688 278.867188 239.957031 279.191406 239.777344 C 281.164062 238.429688 283.832031 235.09375 285.046875 233.285156 Z M 283.808594 192.453125 C 286.125 190.644531 288.011719 187.792969 289.78125 185.488281 C 284.121094 186.019531 279.632812 189.90625 278.761719 195.148438 C 278.140625 198.300781 278.140625 199.359375 278.210938 199.71875 C 278.460938 199.539062 278.664062 199.308594 278.84375 199.148438 C 279.894531 198.246094 281.113281 197.640625 282.164062 196.757812 C 285.921875 193.507812 289.691406 192.355469 290.160156 186.339844 C 288.457031 188.617188 286.367188 191.203125 283.945312 192.824219 C 283.628906 193.070312 283.46875 192.671875 283.808594 192.453125 Z M 289.78125 161.605469 C 288.011719 159.300781 286.125 156.449219 283.808594 154.636719 C 283.46875 154.417969 283.628906 154.019531 283.945312 154.269531 C 286.367188 155.890625 288.457031 158.472656 290.160156 160.753906 C 289.691406 154.738281 285.921875 153.585938 282.164062 150.332031 C 281.113281 149.449219 279.894531 148.84375 278.84375 147.945312 C 278.664062 147.785156 278.460938 147.554688 278.210938 147.375 C 278.140625 147.730469 278.140625 148.792969 278.761719 151.941406 C 279.632812 157.183594 284.121094 161.070312 289.78125 161.605469 Z M 285.046875 113.804688 C 283.832031 111.996094 281.164062 108.660156 279.191406 107.3125 C 278.867188 107.136719 279.050781 106.789062 279.363281 106.996094 C 281.144531 107.933594 283.21875 110.058594 284.609375 111.882812 C 283.480469 108.320312 281.738281 105.835938 279.113281 103.988281 C 277.96875 103.179688 276.101562 101.996094 275.410156 101.699219 C 275.335938 102.269531 275.511719 103.804688 275.847656 105.410156 C 277.039062 110.652344 281.675781 113.246094 285.046875 113.804688 Z M 271.859375 78.640625 C 274.5625 82.496094 279.308594 85.511719 279.738281 90.625 C 279.816406 91.566406 279.960938 93.308594 279.363281 94.441406 C 281.078125 97.042969 282.917969 99.46875 284.4375 102.238281 C 285.476562 104.132812 286.433594 106.140625 287.296875 108.234375 C 288.191406 105.214844 287.894531 103.824219 287.730469 102.203125 C 286.910156 101.585938 286.191406 101.316406 285.484375 100.40625 C 283.046875 97.164062 284.90625 93.457031 284.691406 89.90625 C 284.667969 89.242188 284.648438 88.554688 284.734375 87.664062 C 284.753906 87.296875 285.273438 87.15625 285.476562 87.464844 C 287.953125 90.972656 290.960938 93.027344 290.203125 98.371094 C 290.070312 99.285156 289.660156 101.367188 288.550781 102.152344 C 288.738281 103.945312 289.082031 105.738281 287.765625 109.398438 C 289.710938 114.363281 291.140625 119.800781 291.964844 125.15625 C 292.921875 123.511719 293.570312 121.078125 293.5625 119.398438 C 293.09375 118.265625 292.09375 117.140625 291.746094 115.929688 C 290.414062 111.199219 292.777344 104.851562 296.59375 102.328125 C 296.859375 102.164062 297.234375 102.382812 297.210938 102.695312 C 297.085938 107.003906 299.789062 112.03125 297.539062 116.144531 C 297.21875 116.734375 295.742188 119.347656 294.390625 119.589844 C 294.316406 121.65625 293.484375 124.652344 292.140625 126.355469 C 292.277344 127.328125 292.394531 128.300781 292.492188 129.277344 C 295.074219 125.757812 299.65625 127.304688 300.96875 131.183594 C 302.5 128.464844 305.257812 126.609375 308.8125 129.203125 C 312.066406 131.550781 312.035156 135.375 309.089844 137.9375 C 311.703125 139.382812 313.6875 141.8125 312.316406 144.5 C 310.761719 147.261719 307.957031 148.695312 305.113281 146.695312 C 305.386719 148.898438 305.660156 151.808594 301.585938 152.632812 C 297.96875 153.441406 295.652344 150.890625 296.203125 147.410156 C 295.683594 147.742188 295.097656 147.992188 294.539062 148.101562 C 294.757812 148.894531 294.820312 149.785156 294.65625 150.792969 C 294.550781 151.457031 294.300781 151.988281 294.054688 152.503906 C 293.90625 152.816406 293.765625 153.109375 293.65625 153.433594 C 293.792969 157.238281 294.523438 160.097656 295.296875 163.113281 C 295.578125 164.234375 297.125 168.601562 297.167969 172.199219 C 297.179688 172.289062 297.199219 172.378906 297.21875 172.46875 C 297.804688 171.449219 298.59375 170.515625 299.339844 169.8125 C 299.339844 169.359375 299.207031 168.914062 299.121094 168.457031 C 298.011719 163.839844 300.730469 160.214844 303.925781 156.679688 C 304.050781 156.539062 304.398438 156.015625 304.730469 155.515625 C 306.035156 153.550781 306.246094 153.3125 306.609375 153.351562 C 307.242188 153.429688 307.214844 154.320312 307.238281 154.855469 C 307.746094 160.722656 308.53125 165.554688 303.636719 168.921875 C 302.535156 169.660156 301.160156 169.855469 299.972656 170.347656 C 299.121094 171.128906 298.140625 172.3125 297.582031 173.546875 C 298.140625 174.777344 299.121094 175.960938 299.972656 176.746094 C 301.160156 177.238281 302.535156 177.429688 303.636719 178.171875 C 308.53125 181.535156 307.746094 186.371094 307.238281 192.234375 C 307.214844 192.769531 307.242188 193.664062 306.609375 193.738281 C 306.246094 193.78125 306.035156 193.539062 304.730469 191.578125 C 304.398438 191.074219 304.050781 190.554688 303.925781 190.410156 C 300.730469 186.875 298.011719 183.25 299.121094 178.632812 C 299.207031 178.175781 299.339844 177.734375 299.339844 177.28125 C 298.59375 176.574219 297.804688 175.644531 297.21875 174.625 C 297.199219 174.714844 297.179688 174.800781 297.167969 174.894531 C 297.125 178.488281 295.578125 182.855469 295.296875 183.976562 C 294.523438 186.996094 293.792969 189.855469 293.65625 193.660156 C 293.765625 193.980469 293.90625 194.277344 294.054688 194.589844 C 294.300781 195.101562 294.550781 195.632812 294.65625 196.300781 C 294.820312 197.308594 294.757812 198.199219 294.539062 198.988281 C 295.097656 199.097656 295.683594 199.347656 296.203125 199.683594 C 295.652344 196.199219 297.96875 193.648438 301.585938 194.457031 C 305.660156 195.28125 305.386719 198.191406 305.113281 200.394531 C 307.957031 198.394531 310.761719 199.828125 312.316406 202.59375 C 313.6875 205.277344 311.703125 207.707031 309.089844 209.152344 C 312.035156 211.714844 312.066406 215.539062 308.8125 217.886719 C 305.257812 220.480469 302.5 218.625 300.96875 215.90625 C 299.65625 219.789062 295.074219 221.332031 292.492188 217.8125 C 292.394531 218.789062 292.277344 219.765625 292.140625 220.734375 C 293.484375 222.441406 294.316406 225.433594 294.390625 227.5 C 295.742188 227.746094 297.21875 230.359375 297.539062 230.945312 C 299.789062 235.058594 297.085938 240.089844 297.210938 244.394531 C 297.234375 244.707031 296.859375 244.925781 296.59375 244.765625 C 292.777344 242.238281 290.414062 235.894531 291.746094 231.164062 C 292.09375 229.953125 293.09375 228.824219 293.5625 227.691406 C 293.570312 226.011719 292.921875 223.578125 291.964844 221.9375 C 291.140625 227.292969 289.710938 232.730469 287.765625 237.691406 C 289.082031 241.351562 288.738281 243.148438 288.550781 244.9375 C 289.660156 245.722656 290.070312 247.804688 290.203125 248.71875 C 290.960938 254.0625 287.953125 256.121094 285.476562 259.625 C 285.273438 259.9375 284.753906 259.796875 284.734375 259.429688 C 284.648438 258.539062 284.667969 257.847656 284.691406 257.1875 C 284.90625 253.632812 283.046875 249.925781 285.484375 246.6875 C 286.191406 245.777344 286.910156 245.507812 287.730469 244.886719 C 287.894531 243.269531 288.191406 241.875 287.296875 238.855469 C 286.433594 240.949219 285.476562 242.960938 284.4375 244.855469 C 282.917969 247.621094 281.078125 250.050781 279.363281 252.652344 C 279.960938 253.785156 279.816406 255.523438 279.738281 256.46875 C 279.308594 261.578125 274.5625 264.59375 271.859375 268.449219 C 271.628906 268.800781 271.058594 268.578125 271.117188 268.167969 C 271.601562 263.757812 270.316406 258.417969 273.769531 254.902344 C 274.132812 254.535156 274.527344 254.195312 274.945312 253.882812 C 275.378906 253.5625 275.835938 253.273438 276.3125 253.015625 C 276.828125 252.730469 277.324219 252.453125 277.929688 252.433594 C 278.019531 252.429688 278.40625 252.40625 278.542969 252.414062 C 279.09375 251.550781 279.691406 250.699219 280.261719 249.867188 C 284.488281 244.015625 287.273438 237.730469 289.292969 230.484375 C 288.402344 231.582031 287.253906 232.574219 285.96875 233.332031 C 284.542969 239.507812 282.007812 242.53125 277.226562 245.320312 C 275.554688 246.339844 275.15625 246.421875 274.863281 246.132812 C 274.199219 245.738281 274.914062 242.097656 275.046875 241.515625 C 276.117188 236.433594 280.363281 234.074219 282.140625 233.296875 C 283.40625 232.757812 284.890625 232.292969 285.738281 232.519531 C 287.726562 231.292969 289.328125 229.484375 290.007812 227.683594 C 290.878906 224 291.484375 220.199219 291.800781 216.371094 C 291.792969 216.125 291.683594 215.871094 291.667969 215.617188 C 291.046875 216.203125 290.316406 216.59375 289.636719 217.019531 C 287.484375 218.371094 285.253906 219.378906 283.253906 220.941406 C 283.011719 221.136719 282.621094 220.976562 282.589844 220.671875 C 282.304688 218.445312 283.753906 213.023438 285.339844 211.460938 C 286.203125 210.574219 288.480469 209.390625 289.320312 208.546875 C 288.757812 207.515625 288.726562 206.140625 288.953125 204.304688 C 287.964844 204.863281 287.121094 205.300781 286.164062 205.945312 C 285.972656 206.078125 285.757812 206.21875 285.59375 206.328125 C 285.304688 206.523438 285.003906 206.71875 284.761719 206.417969 C 284.269531 205.953125 284.660156 204.15625 284.855469 203.03125 C 285.527344 197.316406 289.171875 196.226562 292.832031 193.722656 C 292.980469 189.324219 293.863281 186.3125 294.773438 182.710938 C 293.730469 183.835938 292.332031 184.691406 291.046875 185.367188 C 290.792969 192.722656 286.910156 193.777344 282.695312 197.382812 C 281.601562 198.316406 280.292969 198.933594 279.25 199.890625 C 278.871094 200.265625 278.292969 200.832031 277.777344 200.511719 C 277.265625 200.191406 277.128906 199.183594 277.957031 194.992188 C 278.859375 188.964844 284.730469 184.691406 290.753906 184.59375 C 292.730469 183.546875 294.953125 182.070312 295.449219 179.832031 C 295.589844 179.179688 295.722656 178.5 295.84375 177.792969 C 296.101562 176.5625 296.230469 175.074219 296.28125 173.546875 C 296.230469 172.019531 296.101562 170.527344 295.84375 169.296875 C 295.722656 168.589844 295.589844 167.914062 295.449219 167.261719 C 294.953125 165.023438 292.730469 163.542969 290.753906 162.496094 C 284.730469 162.398438 278.859375 158.125 277.957031 152.101562 C 277.128906 147.90625 277.265625 146.902344 277.777344 146.582031 C 278.292969 146.261719 278.871094 146.828125 279.25 147.199219 C 280.292969 148.15625 281.601562 148.773438 282.695312 149.710938 C 286.910156 153.316406 290.792969 154.367188 291.046875 161.726562 C 292.332031 162.402344 293.730469 163.253906 294.773438 164.378906 C 293.863281 160.78125 292.980469 157.765625 292.832031 153.367188 C 289.171875 150.863281 285.527344 149.773438 284.855469 144.058594 C 284.660156 142.933594 284.269531 141.136719 284.761719 140.671875 C 285.003906 140.371094 285.304688 140.570312 285.59375 140.761719 C 285.757812 140.871094 285.972656 141.015625 286.164062 141.148438 C 287.121094 141.789062 287.964844 142.226562 288.953125 142.785156 C 288.726562 140.949219 288.757812 139.578125 289.320312 138.546875 C 288.480469 137.703125 286.203125 136.519531 285.339844 135.628906 C 283.753906 134.066406 282.304688 128.644531 282.589844 126.421875 C 282.621094 126.113281 283.011719 125.953125 283.253906 126.148438 C 285.253906 127.710938 287.484375 128.71875 289.636719 130.074219 C 290.316406 130.5 291.046875 130.886719 291.667969 131.476562 C 291.683594 131.222656 291.792969 130.96875 291.800781 130.71875 C 291.484375 126.894531 290.878906 123.089844 290.007812 119.410156 C 289.328125 117.609375 287.726562 115.796875 285.738281 114.574219 C 284.890625 114.796875 283.40625 114.332031 282.140625 113.796875 C 280.363281 113.015625 276.117188 110.65625 275.046875 105.574219 C 274.914062 104.996094 274.199219 101.351562 274.863281 100.957031 C 275.15625 100.667969 275.554688 100.75 277.226562 101.769531 C 282.007812 104.558594 284.542969 107.585938 285.96875 113.757812 C 287.253906 114.515625 288.402344 115.511719 289.292969 116.605469 C 287.273438 109.363281 284.488281 103.078125 280.261719 97.222656 C 279.691406 96.390625 279.09375 95.539062 278.542969 94.675781 C 278.40625 94.683594 278.019531 94.660156 277.929688 94.65625 C 277.324219 94.636719 276.828125 94.359375 276.3125 94.078125 C 275.835938 93.820312 275.378906 93.53125 274.945312 93.207031 C 274.527344 92.898438 274.132812 92.558594 273.769531 92.1875 C 270.316406 88.675781 271.601562 83.335938 271.117188 78.921875 C 271.058594 78.511719 271.628906 78.292969 271.859375 78.640625 Z M 297.605469 134.355469 C 298.386719 135.578125 299.015625 136.867188 298.871094 138.28125 C 298.832031 138.558594 298.789062 138.828125 298.765625 139.132812 C 297.621094 138.484375 296.167969 138.792969 295.542969 139.308594 C 295.398438 139.410156 295.578125 139.640625 295.714844 139.523438 C 296.273438 139.105469 297.757812 139 298.585938 139.671875 C 298.730469 139.773438 298.785156 139.816406 298.929688 140.035156 C 299.535156 141.15625 299.535156 142.386719 298.734375 143.421875 C 298.597656 143.5625 298.84375 143.777344 298.964844 143.625 C 299.824219 142.742188 300.21875 141.195312 299.570312 140.066406 C 301.140625 140.484375 302.035156 140.976562 302.539062 142.800781 C 302.554688 142.972656 302.832031 142.929688 302.800781 142.761719 C 302.769531 141.070312 301.722656 139.75 300.167969 139.519531 C 301.921875 138.859375 303.25 139.367188 305.128906 139.832031 C 305.292969 139.90625 305.398438 139.640625 305.234375 139.582031 C 303.542969 138.640625 301.914062 138.261719 300.097656 138.75 C 300.683594 137.875 301.058594 137.304688 302.015625 136.582031 C 302.171875 136.496094 302.023438 136.25 301.875 136.347656 C 301.140625 136.675781 300.59375 137.050781 300.15625 137.527344 C 299.949219 137.761719 299.746094 138.007812 299.589844 138.296875 C 299.617188 136.738281 298.84375 135.34375 297.90625 134.144531 C 297.777344 133.945312 297.460938 134.167969 297.605469 134.355469 Z M 298.964844 203.46875 C 299.824219 204.351562 300.21875 205.894531 299.570312 207.027344 C 301.140625 206.609375 302.035156 206.113281 302.539062 204.289062 C 302.554688 204.121094 302.832031 204.160156 302.800781 204.328125 C 302.769531 206.019531 301.722656 207.34375 300.167969 207.574219 C 301.921875 208.230469 303.25 207.726562 305.128906 207.257812 C 305.292969 207.183594 305.398438 207.453125 305.234375 207.511719 C 303.542969 208.449219 301.914062 208.828125 300.097656 208.339844 C 300.683594 209.21875 301.058594 209.789062 302.015625 210.511719 C 302.171875 210.59375 302.023438 210.84375 301.875 210.746094 C 301.140625 210.417969 300.59375 210.042969 300.15625 209.566406 C 299.949219 209.328125 299.746094 209.082031 299.589844 208.796875 C 299.617188 210.355469 298.84375 211.75 297.90625 212.949219 C 297.777344 213.148438 297.460938 212.921875 297.605469 212.738281 C 298.386719 211.511719 299.015625 210.226562 298.871094 208.8125 C 298.832031 208.53125 298.789062 208.265625 298.765625 207.960938 C 297.621094 208.605469 296.167969 208.296875 295.542969 207.785156 C 295.398438 207.679688 295.578125 207.449219 295.714844 207.566406 C 296.273438 207.988281 297.757812 208.09375 298.585938 207.417969 C 298.730469 207.316406 298.785156 207.273438 298.929688 207.054688 C 299.535156 205.9375 299.535156 204.703125 298.734375 203.667969 C 298.597656 203.527344 298.84375 203.3125 298.964844 203.46875 " fill-opacity="1" fill-rule="nonzero"/></g><g fill="#000000" fill-opacity="1"><g transform="translate(68.233931, 289.984786)"><g><path d="M 0.503906 0 L 4.675781 0 L 4.675781 -0.21875 C 3.933594 -0.21875 3.566406 -0.320312 3.515625 -0.957031 L 3.515625 -6.203125 L 8.675781 -6.203125 L 8.675781 -1.125 C 8.675781 -0.335938 8.304688 -0.21875 7.5 -0.21875 L 7.5 0 L 11.6875 0 L 11.6875 -0.21875 C 10.878906 -0.21875 10.527344 -0.335938 10.527344 -1.09375 L 10.527344 -11.132812 C 10.527344 -11.921875 10.878906 -12.039062 11.6875 -12.039062 L 11.6875 -12.257812 L 7.5 -12.257812 L 7.5 -12.039062 C 8.304688 -12.039062 8.675781 -11.921875 8.675781 -11.132812 L 8.675781 -6.421875 L 3.515625 -6.421875 L 3.515625 -11.183594 C 3.53125 -11.921875 3.882812 -12.039062 4.675781 -12.039062 L 4.675781 -12.257812 L 0.503906 -12.257812 L 0.503906 -12.039062 C 1.3125 -12.039062 1.664062 -11.921875 1.664062 -11.132812 L 1.664062 -1.125 C 1.664062 -0.335938 1.3125 -0.21875 0.503906 -0.21875 Z M 0.503906 0 "/></g></g></g><g fill="#000000" fill-opacity="1"><g transform="translate(87.868916, 289.984786)"><g><path d="M 2.875 0 L 2.875 -0.21875 C 2.167969 -0.21875 1.664062 -0.621094 1.96875 -1.34375 L 3.078125 -4.019531 L 7.917969 -4.019531 L 8.878906 -1.679688 C 9.214844 -0.875 9.164062 -0.21875 8.289062 -0.21875 L 7.835938 -0.21875 L 7.835938 0 L 12.5625 0 L 12.5625 -0.21875 C 11.71875 -0.21875 11.199219 -0.589844 10.726562 -1.699219 L 6.304688 -12.257812 L 3.363281 -12.257812 L 3.363281 -12.039062 C 4.035156 -12.039062 4.640625 -11.871094 4.910156 -11.199219 L 5.378906 -10.054688 L 1.714844 -1.277344 C 1.464844 -0.671875 0.808594 -0.21875 0.253906 -0.21875 L 0.253906 0 Z M 5.5 -9.804688 L 7.820312 -4.238281 L 3.179688 -4.238281 Z M 5.5 -9.804688 "/></g></g></g><g fill="#000000" fill-opacity="1"><g transform="translate(108.125669, 289.984786)"><g><path d="M 0.554688 -9.082031 C 0.976562 -11.332031 2.269531 -12.039062 4.070312 -12.039062 L 5.296875 -12.039062 L 5.296875 -1.125 C 5.296875 -0.351562 4.945312 -0.21875 4.136719 -0.21875 L 4.136719 0 L 8.324219 0 L 8.324219 -0.21875 C 7.515625 -0.21875 7.144531 -0.351562 7.144531 -1.125 L 7.144531 -12.039062 L 8.355469 -12.039062 C 10.171875 -12.039062 11.46875 -11.332031 11.886719 -9.082031 L 12.105469 -9.082031 L 11.550781 -12.257812 L 0.890625 -12.257812 L 0.335938 -9.082031 Z M 0.554688 -9.082031 "/></g></g></g><g fill="#000000" fill-opacity="1"><g transform="translate(128.012724, 289.984786)"><g><path d="M 0.554688 -9.082031 C 0.976562 -11.332031 2.269531 -12.039062 4.070312 -12.039062 L 5.296875 -12.039062 L 5.296875 -1.125 C 5.296875 -0.351562 4.945312 -0.21875 4.136719 -0.21875 L 4.136719 0 L 8.324219 0 L 8.324219 -0.21875 C 7.515625 -0.21875 7.144531 -0.351562 7.144531 -1.125 L 7.144531 -12.039062 L 8.355469 -12.039062 C 10.171875 -12.039062 11.46875 -11.332031 11.886719 -9.082031 L 12.105469 -9.082031 L 11.550781 -12.257812 L 0.890625 -12.257812 L 0.335938 -9.082031 Z M 0.554688 -9.082031 "/></g></g></g><g fill="#000000" fill-opacity="1"><g transform="translate(147.899774, 289.984786)"><g><path d="M 2.875 0 L 2.875 -0.21875 C 2.167969 -0.21875 1.664062 -0.621094 1.96875 -1.34375 L 3.078125 -4.019531 L 7.917969 -4.019531 L 8.878906 -1.679688 C 9.214844 -0.875 9.164062 -0.21875 8.289062 -0.21875 L 7.835938 -0.21875 L 7.835938 0 L 12.5625 0 L 12.5625 -0.21875 C 11.71875 -0.21875 11.199219 -0.589844 10.726562 -1.699219 L 6.304688 -12.257812 L 3.363281 -12.257812 L 3.363281 -12.039062 C 4.035156 -12.039062 4.640625 -11.871094 4.910156 -11.199219 L 5.378906 -10.054688 L 1.714844 -1.277344 C 1.464844 -0.671875 0.808594 -0.21875 0.253906 -0.21875 L 0.253906 0 Z M 5.5 -9.804688 L 7.820312 -4.238281 L 3.179688 -4.238281 Z M 5.5 -9.804688 "/></g></g></g><g fill="#000000" fill-opacity="1"><g transform="translate(168.156525, 289.984786)"><g/></g></g><g fill="#000000" fill-opacity="1"><g transform="translate(180.313388, 289.984786)"><g><path d="M 0.421875 -12.039062 C 1.160156 -12.039062 1.53125 -11.972656 1.816406 -11.519531 L 1.816406 -1.144531 C 1.816406 -0.253906 1.429688 -0.21875 0.621094 -0.21875 L 0.621094 0 L 3.226562 0 L 3.226562 -0.21875 C 2.4375 -0.21875 2.050781 -0.253906 2.035156 -1.09375 L 2.035156 -11.082031 C 2.050781 -11.046875 2.066406 -10.996094 2.085938 -10.964844 L 6.304688 0 L 6.542969 0 L 10.878906 -11.601562 L 10.878906 -1.144531 C 10.878906 -0.253906 10.492188 -0.21875 9.683594 -0.21875 L 9.683594 0 L 13.921875 0 L 13.921875 -0.21875 C 13.117188 -0.21875 12.730469 -0.253906 12.730469 -1.144531 L 12.730469 -11.183594 C 12.746094 -12.007812 13.132812 -12.039062 13.921875 -12.039062 L 13.921875 -12.257812 L 10.878906 -12.257812 L 7.28125 -2.625 L 3.515625 -12.257812 L 0.421875 -12.257812 Z M 0.421875 -12.039062 "/></g></g></g><g fill="#000000" fill-opacity="1"><g transform="translate(202.183401, 289.984786)"><g><path d="M 0.503906 0 L 9.601562 0 L 10.796875 -4.824219 L 10.578125 -4.824219 C 9.804688 -2.253906 8.660156 -0.21875 5.785156 -0.21875 C 4.070312 -0.21875 3.53125 -0.351562 3.53125 -1.125 L 3.53125 -6.324219 L 5.464844 -6.324219 C 7.398438 -6.324219 7.398438 -5.261719 7.398438 -3.546875 L 7.617188 -3.546875 L 7.617188 -9.113281 L 7.398438 -9.113281 C 7.398438 -7.414062 7.28125 -6.558594 5.464844 -6.542969 L 3.53125 -6.542969 L 3.53125 -11.132812 C 3.53125 -11.921875 4.21875 -12.023438 6.640625 -12.023438 C 8.542969 -12.023438 9.25 -11.519531 9.871094 -9.601562 L 10.089844 -9.601562 L 9.199219 -12.257812 L 0.503906 -12.257812 L 0.503906 -12.039062 C 1.3125 -12.039062 1.664062 -11.921875 1.664062 -11.132812 L 1.679688 -0.957031 C 1.613281 -0.335938 1.246094 -0.21875 0.503906 -0.21875 Z M 0.503906 0 "/></g></g></g><g fill="#000000" fill-opacity="1"><g transform="translate(220.860513, 289.984786)"><g><path d="M 0.671875 -12.039062 C 1.480469 -12.039062 1.867188 -11.9375 1.867188 -11.03125 L 1.867188 -4.371094 C 1.867188 -1.75 2.976562 0.203125 6.558594 0.203125 C 10.492188 0.203125 10.828125 -2.640625 10.828125 -4.253906 L 10.828125 -11.03125 C 10.828125 -11.9375 11.402344 -12.039062 12.023438 -12.039062 L 12.023438 -12.257812 L 9.417969 -12.257812 L 9.417969 -12.039062 C 10.171875 -12.039062 10.558594 -11.9375 10.609375 -11.199219 L 10.609375 -4.253906 C 10.609375 -1.058594 9.097656 -0.183594 6.960938 -0.183594 C 4.945312 -0.183594 3.714844 -1.5625 3.714844 -4.371094 L 3.714844 -11.03125 C 3.714844 -11.9375 4.101562 -12.039062 4.910156 -12.039062 L 4.910156 -12.257812 L 0.671875 -12.257812 Z M 0.671875 -12.039062 "/></g></g></g><g fill="#000000" fill-opacity="1"><g transform="translate(240.747562, 289.984786)"><g><path d="M 0.503906 -12.039062 C 1.277344 -12.039062 1.648438 -11.921875 1.664062 -11.199219 L 1.664062 -1.09375 C 1.664062 -0.335938 1.3125 -0.21875 0.503906 -0.21875 L 0.503906 0 L 6.222656 0 C 10.425781 0 11.113281 -2.066406 11.113281 -3.546875 C 11.113281 -5.230469 9.804688 -6.273438 7.667969 -6.273438 L 7.667969 -6.339844 C 9.25 -6.355469 10.359375 -7.484375 10.359375 -9.214844 C 10.359375 -11.957031 7.785156 -12.257812 5.296875 -12.257812 L 0.503906 -12.257812 Z M 5.617188 -6.203125 C 7.566406 -6.203125 9.097656 -5.699219 9.097656 -3.582031 C 9.097656 -1.246094 7.871094 -0.203125 5.332031 -0.203125 C 3.816406 -0.203125 3.53125 -0.300781 3.53125 -1.09375 L 3.53125 -6.203125 Z M 3.53125 -11.199219 C 3.53125 -11.972656 3.902344 -12.039062 5.632812 -12.039062 C 7.582031 -12.039062 8.507812 -11.046875 8.507812 -9.214844 C 8.507812 -6.894531 7.097656 -6.40625 5.3125 -6.40625 L 3.53125 -6.40625 Z M 3.53125 -11.199219 "/></g></g></g><g fill="#000000" fill-opacity="1"><g transform="translate(259.979231, 289.984786)"><g><path d="M 0.503906 -12.039062 C 1.3125 -12.039062 1.664062 -11.90625 1.664062 -11.132812 L 1.664062 -0.941406 C 1.613281 -0.21875 1.246094 -0.21875 0.503906 -0.21875 L 0.503906 0 L 9.601562 0 L 10.796875 -4.824219 L 10.578125 -4.824219 C 9.804688 -2.253906 8.660156 -0.21875 5.785156 -0.21875 C 4.070312 -0.21875 3.53125 -0.300781 3.53125 -1.109375 L 3.53125 -11.132812 C 3.53125 -11.90625 3.882812 -12.039062 4.691406 -12.039062 L 4.691406 -12.257812 L 0.503906 -12.257812 Z M 0.503906 -12.039062 "/></g></g></g><g fill="#000000" fill-opacity="1"><g transform="translate(278.639543, 289.984786)"><g><path d="M 0.503906 0 L 9.601562 0 L 10.796875 -4.824219 L 10.578125 -4.824219 C 9.804688 -2.253906 8.660156 -0.21875 5.785156 -0.21875 C 4.070312 -0.21875 3.53125 -0.351562 3.53125 -1.125 L 3.53125 -6.324219 L 5.464844 -6.324219 C 7.398438 -6.324219 7.398438 -5.261719 7.398438 -3.546875 L 7.617188 -3.546875 L 7.617188 -9.113281 L 7.398438 -9.113281 C 7.398438 -7.414062 7.28125 -6.558594 5.464844 -6.542969 L 3.53125 -6.542969 L 3.53125 -11.132812 C 3.53125 -11.921875 4.21875 -12.023438 6.640625 -12.023438 C 8.542969 -12.023438 9.25 -11.519531 9.871094 -9.601562 L 10.089844 -9.601562 L 9.199219 -12.257812 L 0.503906 -12.257812 L 0.503906 -12.039062 C 1.3125 -12.039062 1.664062 -11.921875 1.664062 -11.132812 L 1.679688 -0.957031 C 1.613281 -0.335938 1.246094 -0.21875 0.503906 -0.21875 Z M 0.503906 0 "/></g></g></g><g fill="#000000" fill-opacity="1"><g transform="translate(297.316666, 289.984786)"><g><path d="M 0.839844 0 L 1.058594 0 C 1.058594 -0.421875 1.34375 -0.589844 1.832031 -0.589844 C 2.640625 -0.589844 3.195312 0.203125 5.027344 0.203125 C 7.871094 0.203125 8.761719 -1.210938 8.761719 -2.925781 C 8.761719 -6.523438 2.707031 -7.0625 2.707031 -10.359375 C 2.707031 -11.332031 3.246094 -12.054688 4.589844 -12.054688 C 6.457031 -12.054688 7.871094 -10.542969 7.871094 -8.289062 L 8.089844 -8.289062 L 8.089844 -12.257812 L 7.871094 -12.257812 C 7.871094 -11.753906 7.734375 -11.585938 7.296875 -11.585938 C 6.609375 -11.585938 6.070312 -12.441406 4.355469 -12.441406 C 2.707031 -12.441406 0.859375 -11.5 0.859375 -9.550781 C 0.859375 -6.304688 7.078125 -5.027344 7.078125 -2.238281 C 7.078125 -0.738281 6.003906 -0.21875 4.742188 -0.21875 C 2.671875 -0.21875 1.058594 -1.679688 1.058594 -5.042969 L 0.839844 -5.042969 Z M 0.839844 0 "/></g></g></g></svg>