<?xml version="1.0" encoding="utf-8"?>
<!-- Uploaded to: SVG Repo, www.svgrepo.com, Generator: SVG Repo Mixer Tools -->
<svg width="800px" height="800px" viewBox="0 0 48 48" fill="none" xmlns="http://www.w3.org/2000/svg">
<g id="price tag">
<g id="price tag_2">
<path id="Combined Shape" fill-rule="evenodd" clip-rule="evenodd" d="M43.0901 24.7051C43.6516 25.2666 43.967 26.0309 43.967 26.8262V40.9622C43.967 42.6177 42.6264 43.9592 40.9694 43.9622L26.827 43.9682C26.033 43.9682 25.2694 43.6518 24.7038 43.0893L13.9538 32.3382C13.295 35.478 12.9328 38.986 12.9328 42.8782C12.9328 43.4305 12.4851 43.8782 11.9328 43.8782C11.3805 43.8782 10.9328 43.4305 10.9328 42.8782C10.9328 38.3252 11.4138 34.2606 12.2812 30.6654L4.88078 23.2642C3.70705 22.0935 3.70705 20.1909 4.87983 19.0211L19.0199 4.87909C20.1924 3.70656 22.0916 3.70656 23.2641 4.87909L38.5686 20.1836C38.8548 19.4578 39.1095 18.7345 39.325 18.0254C41.082 12.2463 40.0604 8.97779 35.9698 8.97779C34.4661 8.97779 33.0335 9.17147 31.6729 9.54256C31.1401 9.68787 30.5903 9.37374 30.445 8.84091C30.2997 8.30809 30.6138 7.75835 31.1467 7.61303C32.678 7.19539 34.2875 6.97779 35.9698 6.97779C41.8364 6.97779 43.3255 11.7424 41.2385 18.6072C40.928 19.6285 40.5434 20.675 40.1026 21.7176L43.0901 24.7051ZM12.8847 28.4403L6.29413 21.8491C5.90292 21.4589 5.90292 20.8255 6.29319 20.4362L20.4341 6.29325C20.8256 5.90183 21.4584 5.90183 21.8499 6.2933L37.7158 22.1592C35.9155 26.0045 33.4132 29.6109 31.3633 31.1747C30.9242 31.5097 30.8397 32.1372 31.1747 32.5763C31.5097 33.0154 32.1372 33.0998 32.5763 32.7649C34.7795 31.0841 37.316 27.5288 39.2156 23.659L41.6759 26.1193C41.8616 26.305 41.967 26.5604 41.967 26.8262V40.9622C41.967 41.5141 41.5202 41.9612 40.9672 41.9622L26.8266 41.9682C26.5626 41.9682 26.3058 41.8618 26.1162 41.6732L14.5012 30.057C15.0041 28.2044 15.617 26.4947 16.3237 24.924C17.0577 23.2929 17.8405 21.9358 18.6188 20.8404C19.0749 20.1984 19.4192 19.794 19.5979 19.6153C19.9884 19.2248 19.9884 18.5916 19.5979 18.2011C19.2074 17.8106 18.5742 17.8106 18.1837 18.2011C17.9275 18.4572 17.5108 18.9468 16.9884 19.682C16.1359 20.8819 15.288 22.3518 14.4998 24.1034C13.8919 25.4544 13.3506 26.8995 12.8847 28.4403ZM31.9698 34.9698C33.6255 34.9698 34.9698 33.6255 34.9698 31.9698C34.9698 31.4175 35.4175 30.9698 35.9698 30.9698C36.5221 30.9698 36.9698 31.4175 36.9698 31.9698C36.9698 34.7301 34.7301 36.9698 31.9698 36.9698C29.2095 36.9698 26.9698 34.7301 26.9698 31.9698C26.9698 29.2095 29.2095 26.9698 31.9698 26.9698C32.5221 26.9698 32.9698 27.4175 32.9698 27.9698C32.9698 28.5221 32.5221 28.9698 31.9698 28.9698C30.3141 28.9698 28.9698 30.3141 28.9698 31.9698C28.9698 33.6255 30.3141 34.9698 31.9698 34.9698Z" fill="#000000"/>
</g>
</g>
</svg>